<?xml version="1.0" encoding="UTF-8"?><svg width="800" height="800" xmlns:svg="http://www.w3.org/2000/svg" xmlns="http://www.w3.org/2000/svg" xmlns:xlink="http://www.w3.org/1999/xlink" version="1.0" ><g transform="translate(400,400)" ><circle cx="0" cy="0" r="49.382322673170606" fill="#b6fb10" /><circle cx="0" cy="89.39945542961708" r="40.01713275644647" fill="#4c8beb" /><circle cx="-71.19713162249752" cy="53.541179991754994" r="39.70016441705798" fill="#935cd9" /><circle cx="-92.18009849999143" cy="-31.71637219690367" r="48.10151611460305" fill="#8f9ca7" /><circle cx="-27.729229239992733" cy="-72.32397787285433" r="28.075200716085735" fill="#3bcc86" /><circle cx="16.896357701767407" cy="-64.4447906915605" r="17.240630960431673" fill="#e0afd3" /><circle cx="71.32556906720083" cy="-51.639842429482954" r="38.67453469127241" fill="#9c6e50" /><circle cx="81.35466658827598" cy="20.97923302364731" r="34.633806694648065" fill="#8fef9f" /><circle cx="81.3371643130625" cy="97.31757202691432" r="41.70453431501336" fill="#26687e" /><circle cx="35.630118717710275" cy="132.9448980905262" r="16.24751810333095" fill="#1b19f5" /><circle cx="4.348586468558555" cy="147.51481395614184" r="18.260694081391648" fill="#41985a" /><circle cx="-25.753799506806413" cy="136.60584861316454" r="13.757412768703805" fill="#3aaed4" /><circle cx="-45.508874875411834" cy="117.71055575901276" r="13.57928591389939" fill="#e84168" /><circle cx="-84.32507610432698" cy="117.1416736504273" r="25.24108379965567" fill="#8659fd" /><circle cx="-146.08612445151422" cy="88.37145006226848" r="42.89226235519168" fill="#685f18" /><circle cx="-178.8976817610286" cy="5.480080079591161" r="46.256924464883376" fill="#45e45a" /><circle cx="-166.34027223205962" cy="-80.56851390888946" r="40.703118436857565" fill="#ce8ae3" /><circle cx="-108.48805870532689" cy="-97.35881758534615" r="19.53634460432758" fill="#bea796" /><circle cx="-59.133039565239905" cy="-136.8006246782021" r="43.64256058615838" fill="#03aac1" /><circle cx="31.940019838915966" cy="-128.62112127364105" r="47.797072096711304" fill="#0f2475" /><circle cx="84.75839446157576" cy="-100.52954431398459" r="12.02698154277333" fill="#33f9bc" /><circle cx="141.18680419324713" cy="-96.8202846083534" r="44.52320884071878" fill="#c75549" /><circle cx="158.37693050014246" cy="-6.708274301956806" r="47.213778486679004" fill="#6b6b66" /><circle cx="139.88007626208125" cy="63.85056330971305" r="25.72923476211735" fill="#0274bc" /><circle cx="156.83898678406555" cy="126.60886180277288" r="39.28006207946265" fill="#f2fadd" /><circle cx="108.8266850470763" cy="142.70493321843924" r="11.358506552578413" fill="#0845fd" /><circle cx="78.58794010413597" cy="165.440526186649" r="26.473872216675684" fill="#b7c8d4" /><circle cx="23.180239187868764" cy="203.34138358900697" r="40.65651071579677" fill="#2600f8" /><circle cx="-21.469744254039064" cy="169.27552985727598" r="15.504894286520724" fill="#7f1e87" /><circle cx="-59.5706146366081" cy="159.50883857643916" r="23.827847576773024" fill="#7e6bee" /><circle cx="-103.1237193508325" cy="158.01804093157008" r="19.750764239875558" fill="#b6f881" /><circle cx="-167.96422963266895" cy="176.15792381069974" r="47.579371096966554" fill="#0f2335" /><circle cx="-213.8324083372495" cy="114.11265915668302" r="29.579586151445714" fill="#f905d9" /><circle cx="-216.00491909527966" cy="62.66580709594239" r="21.913116146583754" fill="#1077ab" /><circle cx="-255.55960840554621" cy="24.845394124899308" r="32.81308492504151" fill="#abe5b6" /><circle cx="-233.4343628456334" cy="-13.556813978711077" r="11.506843756302754" fill="#0726a8" /><circle cx="-224.16258249873223" cy="-46.27586665801919" r="22.500542485990586" fill="#4dc5ab" /><circle cx="-221.62197489847674" cy="-83.33730893943677" r="14.647878623894046" fill="#8e3ce1" /><circle cx="-220.89387825582193" cy="-132.80981000783225" r="34.82997992600116" fill="#f22039" /><circle cx="-165.7457342023735" cy="-142.41760865958557" r="21.14883381163115" fill="#d757af" /><circle cx="-136.1302594792183" cy="-125.13729335626991" r="13.139438819982288" fill="#0d1f9a" /><circle cx="-120.56116131421254" cy="-154.81225840600143" r="20.371758836538024" fill="#ce7b8a" /><circle cx="-97.21920444835433" cy="-185.06778037727867" r="17.84137450897585" fill="#ecfe2c" /><circle cx="-62.570727036378" cy="-200.39697563011828" r="20.046634333769035" fill="#66a49c" /><circle cx="2.705844913710223" cy="-219.94832252114304" r="48.09502701087554" fill="#6f0ff2" /><circle cx="95.69042276910676" cy="-199.06000909463376" r="47.206879353847235" fill="#a660a4" /><circle cx="180.75016932407146" cy="-173.37151531343864" r="41.647266282365635" fill="#067baa" /><circle cx="202.15262693193134" cy="-116.15990039760496" r="19.436561961563914" fill="#d007df" /><circle cx="238.74021777575555" cy="-58.83102189726302" r="48.57264413483201" fill="#32cf28" /><circle cx="222.10122993340389" cy="5.236586208445793" r="17.620363991439234" fill="#64a64c" /><circle cx="211.31056592033772" cy="58.744788350398316" r="36.96503814417697" fill="#fa8126" /><circle cx="237.64347309080782" cy="132.94867781894058" r="41.77274955847716" fill="#a55a20" /><circle cx="191.50075989611344" cy="178.06174093244056" r="22.75893602659381" fill="#572ee2" /><circle cx="133.0806218274838" cy="209.37578997675232" r="43.524411803063316" fill="#7ce3f2" /><circle cx="71.85043677587541" cy="277.781331294502" r="48.28219822273261" fill="#e62cdb" /><circle cx="2.6380768253865625" cy="263.04441249100046" r="22.481687663622097" fill="#234785" /><circle cx="-38.037701610020626" cy="233.6986119942114" r="27.675016356116686" fill="#b60579" /><circle cx="-78.02755914524927" cy="202.55698211462584" r="23.01018678291571" fill="#3a8c43" /><circle cx="-117.7454118480403" cy="225.6723636103093" r="22.944450469614004" fill="#add822" /><circle cx="-172.25642201363024" cy="272.67361019200916" r="49.031708149103636" fill="#a43d8c" /><circle cx="-247.36777869111205" cy="219.60706611944403" r="42.93444867903282" fill="#f779fd" /><circle cx="-227.68781787293835" cy="167.49578039905373" r="12.769114557415588" fill="#a64f23" /><circle cx="-249.74228769598352" cy="145.6943590375504" r="18.242199709435837" fill="#f2562a" /><circle cx="-253.49624692125056" cy="117.47429637764317" r="10.226452285241718" fill="#08cce6" /><circle cx="-269.39914070121796" cy="83.4113881091522" r="27.365884038596356" fill="#1f8a1d" /><circle cx="-326.34188638727846" cy="45.6457421874338" r="40.96215045788221" fill="#3058c9" /><circle cx="-294.34276541288887" cy="5.0468034190678" r="10.731345963342282" fill="#69c9d5" /><circle cx="-280.2042496921616" cy="-10.58910010740745" r="10.34895540723808" fill="#f25221" /><circle cx="-280.58210210959624" cy="-55.624775561272045" r="34.68830512262967" fill="#bbc1c2" /><circle cx="-263.62132493058186" cy="-104.08577678674406" r="16.65501578955301" fill="#c1ffde" /><circle cx="-275.1568248930448" cy="-138.60606491010162" r="19.741660590352936" fill="#914a4e" /><circle cx="-260.19371622911933" cy="-196.11432950690275" r="39.681357826958475" fill="#b7568e" /><circle cx="-181.28619881144968" cy="-200.90886787156276" r="39.37168704261019" fill="#b0fd24" /><circle cx="-120.65375214758535" cy="-219.94721870928282" r="24.179492262470127" fill="#f2fb28" /><circle cx="-77.03431351683851" cy="-243.44549248165762" r="25.366691210558024" fill="#2852f6" /><circle cx="-41.090929163546306" cy="-276.78341006650817" r="23.657217524494666" fill="#7f4a62" /><circle cx="2.319269845811192" cy="-289.66666359626623" r="21.62438579897486" fill="#0ddf74" /><circle cx="70.79554946470796" cy="-289.7645362797542" r="46.851963764268575" fill="#960583" /><circle cx="120.69630023962111" cy="-254.93057176087208" r="14.004342498950649" fill="#2d6b9d" /><circle cx="165.59050557109856" cy="-245.34194011598183" r="31.902427472005137" fill="#9edfec" /><circle cx="200.21183245746232" cy="-221.41102676642927" r="10.184683252256374" fill="#671246" /><circle cx="243.136271814022" cy="-214.80603012622555" r="33.24495495360567" fill="#cfdf29" /><circle cx="245.02854067991169" cy="-156.87869269841343" r="24.713280897189676" fill="#6302c0" /><circle cx="307.78720784456493" cy="-123.79521052258752" r="46.23153637061303" fill="#cad85f" /><circle cx="329.6103588035698" cy="-34.77059521037499" r="45.428880654768975" fill="#711a5f" /><circle cx="272.2385726916249" cy="7.822835687166723" r="26.02545579375189" fill="#b01001" /><circle cx="294.6304482344207" cy="71.8337235261408" r="41.78892212316025" fill="#1512fa" /><circle cx="314.08957928691945" cy="147.1254601874921" r="35.976773339560296" fill="#118200" /><circle cx="271.7709830631575" cy="187.10872007737015" r="22.24285099597911" fill="#f78ec9" /><circle cx="228.99637899765062" cy="208.7538083687334" r="25.696450209835145" fill="#aadc98" /><circle cx="192.2656409433398" cy="243.11976985695213" r="24.604309496397235" fill="#3f242f" /><circle cx="158.48937027242127" cy="260.08232039018617" r="13.192047219927566" fill="#14fb5e" /><circle cx="146.49022423922068" cy="301.66261686812214" r="30.084973942799508" fill="#bba58a" /><circle cx="105.5339485819219" cy="366.3787250728831" r="46.50217365317105" fill="#118929" /><circle cx="36.3792559550952" cy="343.45034280712855" r="26.354413047246418" fill="#d19124" /><circle cx="-18.899814815558642" cy="316.49605169013034" r="35.14607048651815" fill="#45f3f0" /><circle cx="-52.71313059567986" cy="276.2985222950376" r="17.38184298351735" fill="#be74f2" /><circle cx="-71.09351610609485" cy="254.3075184441756" r="11.27898083367434" fill="#c7b103" /></g></svg>
